<svg width="30" height="32" viewBox="0 0 30 32" fill="none" xmlns="http://www.w3.org/2000/svg">
<g clip-path="url(#clip0_368_18)">
<path d="M7.05223 3.55067C6.98563 5.67631 5.55929 7.61879 3.62235 7.61879C1.68542 7.61879 0.300709 5.58751 0.225784 3.46187C0.16196 1.58044 1.68265 0.0209045 3.61958 0.0209045C5.55651 0.0209045 7.1216 1.46944 7.055 3.5479L7.05223 3.55067Z" fill="#0462AF"/>
<path d="M7.05236 3.46188H0.225922V26.5136H7.05236V3.46188Z" fill="#0462AF"/>
<path d="M7.05525 28.0038C7.12185 29.8852 5.60116 31.4447 3.66423 31.4447C1.7273 31.4447 0.164985 29.9962 0.226035 27.9177C0.292634 25.7921 1.71897 23.8496 3.65868 23.8496C5.59839 23.8496 6.97755 25.8809 7.05248 28.0038H7.05525Z" fill="#0462AF"/>
<path d="M7.05236 4.95481H0.225922V28.0065H7.05236V4.95481Z" fill="#0462AF"/>
<path d="M5.80639 31.0424L0.977936 26.2139L12.4081 14.4952L17.8526 18.9934L5.80639 31.0424Z" fill="#0462AF"/>
<path d="M1.34135 25.8531C2.89256 24.3991 5.27349 24.0328 6.64433 25.4008C8.01517 26.7689 7.55452 29.1859 6.10599 30.7399C4.82117 32.1163 2.64559 32.144 1.27753 30.7759C-0.0933114 29.4051 -0.173786 27.2767 1.34413 25.8531H1.34135Z" fill="#0462AF"/>
<path d="M22.8918 3.55067C22.9584 5.67631 24.3848 7.61879 26.3245 7.61879C28.2642 7.61879 29.6434 5.58751 29.7183 3.46187C29.7821 1.58044 28.2642 0.0209045 26.3273 0.0209045C24.3903 0.0209045 22.828 1.46944 22.8918 3.5479V3.55067Z" fill="#0462AF"/>
<path d="M11.584 16.9233C11.6478 19.0489 13.0187 20.9914 14.8779 20.9914C16.7371 20.9914 18.0691 19.1266 18.1413 17.001C18.2023 15.1195 16.7427 13.3935 14.8835 13.3935C13.0242 13.3935 11.523 14.842 11.584 16.9205V16.9233Z" fill="#0462AF"/>
<path d="M29.7156 3.46188H22.8892V26.5136H29.7156V3.46188Z" fill="#0462AF"/>
<path d="M29.7157 27.9177C29.6491 25.7921 28.2228 23.8496 26.2859 23.8496C24.3489 23.8496 22.9642 25.8809 22.8921 28.0065C22.8255 29.888 24.3461 31.4475 26.2831 31.4475C28.22 31.4475 29.7823 29.999 29.7185 27.9205L29.7157 27.9177Z" fill="#0462AF"/>
<path d="M29.7183 4.95483H22.8918V28.0066H29.7183V4.95483Z" fill="#0462AF"/>
<path d="M16.9162 14.1669L12.0892 18.9939L24.1371 31.0418L28.9642 26.2148L16.9162 14.1669Z" fill="#0462AF"/>
<path d="M28.6028 25.8532C27.0544 24.3991 24.6706 24.0328 23.2998 25.4008C21.929 26.7689 22.3896 29.1859 23.8382 30.7399C25.123 32.1163 27.2986 32.144 28.6694 30.776C30.0402 29.4051 30.1207 27.2767 28.6028 25.8532Z" fill="#0462AF"/>
<path d="M14.864 9.30595C14.864 9.30595 9.62205 5.53754 10.5184 2.42957C11.3314 -0.362061 14.5282 0.517607 14.864 1.98002C15.1997 0.520382 18.3965 -0.362061 19.2096 2.42957C20.1059 5.53754 14.864 9.30595 14.864 9.30595Z" fill="#E7333D"/>
</g>
<defs>
<clipPath id="clip0_368_18">
<rect width="29.4147" height="31.9122" fill="white" transform="translate(0.225922 0.0209045)"/>
</clipPath>
</defs>
</svg>
